HIERARCHY
ROOT Hips
{
	OFFSET 0 0 0
	CHANNELS 6 Xposition Yposition Zposition Yrotation Xrotation Zrotation
	JOINT Spine
	{
		OFFSET -0 7.96124 -2.53765
		CHANNELS 3 Yrotation Xrotation Zrotation
		JOINT Spine1
		{
			OFFSET -0 8.14037 0
			CHANNELS 3 Yrotation Xrotation Zrotation
			JOINT Spine2
			{
				OFFSET -0 8.14037 0
				CHANNELS 3 Yrotation Xrotation Zrotation
				JOINT Spine3
				{
					OFFSET -0 8.14037 0
					CHANNELS 3 Yrotation Xrotation Zrotation
					JOINT Neck
					{
						OFFSET -0 14.0192 3.53765
						CHANNELS 3 Yrotation Xrotation Zrotation
						JOINT Head
						{
							OFFSET -0 9.95155 0
							CHANNELS 3 Yrotation Xrotation Zrotation
							End Site
							{
								OFFSET 0 15 0
							}
						}
					}
					JOINT LeftShoulder
					{
						OFFSET 1.65859 2.44779 3.31718
						CHANNELS 3 Yrotation Xrotation Zrotation
						JOINT LeftArm
						{
							OFFSET 18.8215 0 0
							CHANNELS 3 Yrotation Xrotation Zrotation
							JOINT LeftForeArm
							{
								OFFSET 24.369 0 0
								CHANNELS 3 Yrotation Xrotation Zrotation
								JOINT LeftHand
								{
									OFFSET 20.693 0 0
									CHANNELS 3 Yrotation Xrotation Zrotation
									JOINT LeftHandThumb1
									{
										OFFSET 4.77279 0 2.93781
										CHANNELS 3 Yrotation Xrotation Zrotation
										JOINT LeftHandThumb2
										{
											OFFSET 3 0 1
											CHANNELS 3 Yrotation Xrotation Zrotation
											JOINT LeftHandThumb3
											{
												OFFSET 2.1 0 0
												CHANNELS 3 Yrotation Xrotation Zrotation
												JOINT LeftHandThumb4
												{
													OFFSET 1.305 0 0
													CHANNELS 3 Yrotation Xrotation Zrotation
													End Site
													{
														OFFSET -0 0 0
													}
												}
											}
										}
									}
									JOINT LeftHandIndex1
									{
										OFFSET 8.85787 0 3.70426
										CHANNELS 3 Yrotation Xrotation Zrotation
										JOINT LeftHandIndex2
										{
											OFFSET 3.5 0 0
											CHANNELS 3 Yrotation Xrotation Zrotation
											JOINT LeftHandIndex3
											{
												OFFSET 2.45 0 0
												CHANNELS 3 Yrotation Xrotation Zrotation
												JOINT LeftHandIndex4
												{
													OFFSET 1.5225 0 0
													CHANNELS 3 Yrotation Xrotation Zrotation
													End Site
													{
														OFFSET -0 0 0
													}
												}
											}
										}
									}
									JOINT LeftHandMiddle1
									{
										OFFSET 8.9513 0 1.15177
										CHANNELS 3 Yrotation Xrotation Zrotation
										JOINT LeftHandMiddle2
										{
											OFFSET 4.6 0 0
											CHANNELS 3 Yrotation Xrotation Zrotation
											JOINT LeftHandMiddle3
											{
												OFFSET 3.22 0 0
												CHANNELS 3 Yrotation Xrotation Zrotation
												JOINT LeftHandMiddle4
												{
													OFFSET 2.001 0 0
													CHANNELS 3 Yrotation Xrotation Zrotation
													End Site
													{
														OFFSET -0 0 0
													}
												}
											}
										}
									}
									JOINT LeftHandRing1
									{
										OFFSET 8.74474 0 -1.40072
										CHANNELS 3 Yrotation Xrotation Zrotation
										JOINT LeftHandRing2
										{
											OFFSET 3.75 0 0
											CHANNELS 3 Yrotation Xrotation Zrotation
											JOINT LeftHandRing3
											{
												OFFSET 2.625 0 0
												CHANNELS 3 Yrotation Xrotation Zrotation
												JOINT LeftHandRing4
												{
													OFFSET 1.63125 0 0
													CHANNELS 3 Yrotation Xrotation Zrotation
													End Site
													{
														OFFSET -0 0 0
													}
												}
											}
										}
									}
									JOINT LeftHandPinky1
									{
										OFFSET 8.23817 0 -3.95321
										CHANNELS 3 Yrotation Xrotation Zrotation
										JOINT LeftHandPinky2
										{
											OFFSET 2.875 0 0
											CHANNELS 3 Yrotation Xrotation Zrotation
											JOINT LeftHandPinky3
											{
												OFFSET 2.0125 0 0
												CHANNELS 3 Yrotation Xrotation Zrotation
												JOINT LeftHandPinky4
												{
													OFFSET 1.25062 0 0
													CHANNELS 3 Yrotation Xrotation Zrotation
													End Site
													{
														OFFSET -0 0 0
													}
												}
											}
										}
									}
								}
							}
						}
					}
					JOINT RightShoulder
					{
						OFFSET -1.65859 2.44779 3.31718
						CHANNELS 3 Yrotation Xrotation Zrotation
						JOINT RightArm
						{
							OFFSET -18.8215 0 0
							CHANNELS 3 Yrotation Xrotation Zrotation
							JOINT RightForeArm
							{
								OFFSET -24.369 0 0
								CHANNELS 3 Yrotation Xrotation Zrotation
								JOINT RightHand
								{
									OFFSET -20.693 0 0
									CHANNELS 3 Yrotation Xrotation Zrotation
									JOINT RightHandThumb1
									{
										OFFSET -4.49526 0 1.86793
										CHANNELS 3 Yrotation Xrotation Zrotation
										JOINT RightHandThumb2
										{
											OFFSET -3 0 1
											CHANNELS 3 Yrotation Xrotation Zrotation
											JOINT RightHandThumb3
											{
												OFFSET -2.1 0 0
												CHANNELS 3 Yrotation Xrotation Zrotation
												JOINT RightHandThumb4
												{
													OFFSET -1.305 0 0
													CHANNELS 3 Yrotation Xrotation Zrotation
													End Site
													{
														OFFSET -0 0 0
													}
												}
											}
										}
									}
									JOINT RightHandIndex1
									{
										OFFSET -9.23757 0 2.80764
										CHANNELS 3 Yrotation Xrotation Zrotation
										JOINT RightHandIndex2
										{
											OFFSET -3.5 0 0
											CHANNELS 3 Yrotation Xrotation Zrotation
											JOINT RightHandIndex3
											{
												OFFSET -2.45 0 0
												CHANNELS 3 Yrotation Xrotation Zrotation
												JOINT RightHandIndex4
												{
													OFFSET -1.5225 0 0
													CHANNELS 3 Yrotation Xrotation Zrotation
													End Site
													{
														OFFSET -0 0 0
													}
												}
											}
										}
									}
									JOINT RightHandMiddle1
									{
										OFFSET -8.70766 0 0.787911
										CHANNELS 3 Yrotation Xrotation Zrotation
										JOINT RightHandMiddle2
										{
											OFFSET -4.6 0 0
											CHANNELS 3 Yrotation Xrotation Zrotation
											JOINT RightHandMiddle3
											{
												OFFSET -3.22 0 0
												CHANNELS 3 Yrotation Xrotation Zrotation
												JOINT RightHandMiddle4
												{
													OFFSET -2.001 0 0
													CHANNELS 3 Yrotation Xrotation Zrotation
													End Site
													{
														OFFSET -0 0 0
													}
												}
											}
										}
									}
									JOINT RightHandRing1
									{
										OFFSET -7.87775 0 -1.23182
										CHANNELS 3 Yrotation Xrotation Zrotation
										JOINT RightHandRing2
										{
											OFFSET -3.75 0 0
											CHANNELS 3 Yrotation Xrotation Zrotation
											JOINT RightHandRing3
											{
												OFFSET -2.625 0 0
												CHANNELS 3 Yrotation Xrotation Zrotation
												JOINT RightHandRing4
												{
													OFFSET -1.63125 0 0
													CHANNELS 3 Yrotation Xrotation Zrotation
													End Site
													{
														OFFSET -0 0 0
													}
												}
											}
										}
									}
									JOINT RightHandPinky1
									{
										OFFSET -6.74784 0 -3.25155
										CHANNELS 3 Yrotation Xrotation Zrotation
										JOINT RightHandPinky2
										{
											OFFSET -2.875 0 0
											CHANNELS 3 Yrotation Xrotation Zrotation
											JOINT RightHandPinky3
											{
												OFFSET -2.0125 0 0
												CHANNELS 3 Yrotation Xrotation Zrotation
												JOINT RightHandPinky4
												{
													OFFSET -1.25062 0 0
													CHANNELS 3 Yrotation Xrotation Zrotation
													End Site
													{
														OFFSET -0 0 0
													}
												}
											}
										}
									}
								}
							}
						}
					}
				}
			}
		}
	}
	JOINT LeftUpLeg
	{
		OFFSET 9.95155 -3.31718 3
		CHANNELS 3 Yrotation Xrotation Zrotation
		JOINT LeftLeg
		{
			OFFSET -0 -43.2932 2.32203
			CHANNELS 3 Yrotation Xrotation Zrotation
			JOINT LeftFoot
			{
				OFFSET -0 -34.5003 -2.32203
				CHANNELS 3 Yrotation Xrotation Zrotation
				JOINT LeftToeBase
				{
					OFFSET -0 -8.48975 8.93072
					CHANNELS 3 Yrotation Xrotation Zrotation
					End Site
					{
						OFFSET 0 0 5
					}
				}
			}
		}
	}
	JOINT RightUpLeg
	{
		OFFSET -9.95155 -3.31718 3
		CHANNELS 3 Yrotation Xrotation Zrotation
		JOINT RightLeg
		{
			OFFSET -0 -43.2932 2.32203
			CHANNELS 3 Yrotation Xrotation Zrotation
			JOINT RightFoot
			{
				OFFSET -0 -34.5003 -2.32203
				CHANNELS 3 Yrotation Xrotation Zrotation
				JOINT RightToeBase
				{
					OFFSET -0 -8.48975 8.93072
					CHANNELS 3 Yrotation Xrotation Zrotation
					End Site
					{
						OFFSET 0 0 5
					}
				}
			}
		}
	}
}
MOTION
Frames: 6
Frame Time: 0.0047619
40.617728 89.260010 5.299406 -29.592339 9.021484 5.604573 5.273585 1.069156 -0.207588 4.688849 0.739897 0.131590 2.357484 0.608139 0.474636 1.552144 0.477556 0.335292 34.275982 5.032352 -3.005905 14.826517 -10.463373 -3.790877 12.043118 2.754485 6.245735 -25.035233 21.609860 -44.886197 -45.052084 -2.987216 -6.100499 67.182213 -41.267317 -56.738473 -26.133013 -8.225767 16.266498 -30.249845 -8.777987 18.989516 -98.759045 7.872490 -0.754238 0.000001 -0.000002 12.499998 0.000001 -0.000002 12.499998 -0.000000 -0.000001 10.000000 0.000000 0.000000 5.000004 0.000001 -0.000002 12.499998 0.000001 -0.000002 12.499998 -0.000000 -0.000001 10.000000 0.000000 0.000000 5.000004 0.000201 0.000144 -20.981593 0.000201 0.000144 -20.981593 0.000201 0.000047 -16.785280 0.000094 -0.000002 -8.392640 0.000359 0.000149 -42.187651 0.000359 0.000149 -42.187651 0.000296 -0.000111 -33.750091 0.000094 -0.000125 -16.875059 -66.707086 -0.977654 -179.356484 5.608376 -8.439089 -19.880396 24.394201 -30.115602 -8.327862 20.271647 -16.474477 -6.855589 -55.255000 -69.420577 53.314476 8.950055 -20.944103 1.969891 10.329101 -24.103913 1.978802 -33.194740 -21.691232 7.541910 -0.000003 -0.000007 -12.499996 -0.000003 -0.000007 -12.499996 -0.000003 0.000011 -9.999999 0.000002 -0.000008 -5.000005 -0.002691 0.002788 98.166145 -0.002691 0.002788 98.166145 -0.001908 -0.002427 78.532914 0.000995 -0.001188 39.266459 -0.001419 0.001555 16.625723 -0.001419 0.001555 16.625723 -0.001454 0.000885 13.300564 -0.000805 0.000259 6.650286 -0.000003 -0.000007 -12.499996 -0.000003 -0.000007 -12.499996 -0.000003 0.000011 -9.999999 0.000002 -0.000008 -5.000005 -26.133013 -8.225767 16.266498 -0.359949 -15.427177 -13.099632 0.000000 18.029261 0.000000 -3.111437 2.786546 16.594137 0.000000 -13.693845 0.000000 -30.616363 -54.365421 -4.840550 0.000000 43.727307 0.000000 -12.776683 40.643587 0.776386 0.000000 1.595150 0.000000
40.428360 89.242041 5.292601 -29.080262 9.001588 5.617833 5.163611 1.027891 -0.275709 4.575335 0.697598 0.114922 2.264108 0.628996 0.492849 1.472089 0.491033 0.373218 34.241780 5.007636 -2.997697 14.817183 -10.537681 -3.830130 12.018249 2.761206 6.286420 -25.146299 21.652728 -44.884454 -44.988410 -3.125959 -5.908243 66.993524 -41.160197 -56.633997 -26.133013 -8.225767 16.266498 -30.249845 -8.777987 18.989516 -98.759045 7.872490 -0.754238 0.000001 -0.000002 12.499998 0.000001 -0.000002 12.499998 -0.000000 -0.000001 10.000000 0.000000 0.000000 5.000004 0.000001 -0.000002 12.499998 0.000001 -0.000002 12.499998 -0.000000 -0.000001 10.000000 0.000000 0.000000 5.000004 0.000201 0.000144 -20.981593 0.000201 0.000144 -20.981593 0.000201 0.000047 -16.785280 0.000094 -0.000002 -8.392640 0.000359 0.000149 -42.187651 0.000359 0.000149 -42.187651 0.000296 -0.000111 -33.750091 0.000094 -0.000125 -16.875059 -66.707086 -0.977654 -179.356484 5.570091 -8.454904 -19.832693 24.382129 -30.101319 -8.370106 20.320498 -16.390422 -6.888329 -56.114658 -69.490369 53.950644 8.950055 -20.944103 1.969891 10.329101 -24.103913 1.978802 -33.194740 -21.691232 7.541910 -0.000003 -0.000007 -12.499996 -0.000003 -0.000007 -12.499996 -0.000003 0.000011 -9.999999 0.000002 -0.000008 -5.000005 -0.002691 0.002788 98.166145 -0.002691 0.002788 98.166145 -0.001908 -0.002427 78.532914 0.000995 -0.001188 39.266459 -0.001419 0.001555 16.625723 -0.001419 0.001555 16.625723 -0.001454 0.000885 13.300564 -0.000805 0.000259 6.650286 -0.000003 -0.000007 -12.499996 -0.000003 -0.000007 -12.499996 -0.000003 0.000011 -9.999999 0.000002 -0.000008 -5.000005 -26.133013 -8.225767 16.266498 -0.339824 -15.465742 -13.049935 0.000000 18.265132 0.000000 -3.384034 2.825408 16.806678 0.000000 -13.918393 0.000000 -30.902073 -53.601032 -4.889358 0.000000 43.027638 0.000000 -12.580844 41.165451 1.091599 0.000000 1.705157 0.000000
40.239679 89.226575 5.288389 -28.550413 8.973513 5.630400 5.041347 0.962154 -0.310004 4.427127 0.694327 0.094104 2.195631 0.642676 0.500111 1.402169 0.545389 0.332874 34.190666 4.909752 -2.940608 14.806539 -10.608953 -3.896650 12.009009 2.769243 6.423572 -25.375541 21.678128 -44.925609 -44.909902 -3.210218 -5.671176 66.925139 -41.129436 -56.699375 -26.133013 -8.225767 16.266498 -30.249845 -8.777987 18.989516 -98.759045 7.872490 -0.754238 0.000001 -0.000002 12.499998 0.000001 -0.000002 12.499998 -0.000000 -0.000001 10.000000 0.000000 0.000000 5.000004 0.000001 -0.000002 12.499998 0.000001 -0.000002 12.499998 -0.000000 -0.000001 10.000000 0.000000 0.000000 5.000004 0.000201 0.000144 -20.981593 0.000201 0.000144 -20.981593 0.000201 0.000047 -16.785280 0.000094 -0.000002 -8.392640 0.000359 0.000149 -42.187651 0.000359 0.000149 -42.187651 0.000296 -0.000111 -33.750091 0.000094 -0.000125 -16.875059 -66.707086 -0.977654 -179.356484 5.542559 -8.529861 -19.737099 24.318469 -30.038147 -8.397956 20.432481 -16.357309 -6.894229 -56.887347 -69.577856 54.460217 8.950055 -20.944103 1.969891 10.329101 -24.103913 1.978802 -33.194740 -21.691232 7.541910 -0.000003 -0.000007 -12.499996 -0.000003 -0.000007 -12.499996 -0.000003 0.000011 -9.999999 0.000002 -0.000008 -5.000005 -0.002691 0.002788 98.166145 -0.002691 0.002788 98.166145 -0.001908 -0.002427 78.532914 0.000995 -0.001188 39.266459 -0.001419 0.001555 16.625723 -0.001419 0.001555 16.625723 -0.001454 0.000885 13.300564 -0.000805 0.000259 6.650286 -0.000003 -0.000007 -12.499996 -0.000003 -0.000007 -12.499996 -0.000003 0.000011 -9.999999 0.000002 -0.000008 -5.000005 -26.133013 -8.225767 16.266498 -0.348610 -15.488118 -13.002010 0.000000 18.503739 0.000000 -3.712475 2.808731 17.086564 0.000000 -13.967565 0.000000 -31.253272 -52.821092 -4.898984 0.000000 42.301203 0.000000 -12.411547 41.646642 1.197523 0.000000 1.964757 0.000000
40.043802 89.217938 5.288720 -27.964464 8.947727 5.636606 4.923544 0.899434 -0.370630 4.302858 0.652172 0.080549 2.094195 0.652901 0.546174 1.290566 0.602144 0.287471 34.153011 4.807713 -2.837924 14.804569 -10.620003 -3.984475 11.973715 2.791895 6.538762 -25.415260 21.524612 -44.874683 -44.775257 -3.153670 -5.661075 67.014064 -41.154608 -56.848010 -26.126309 -8.219273 16.231289 -30.241719 -8.772112 18.948786 -98.663056 7.792865 -0.797826 0.000000 -0.000000 12.500000 0.000000 -0.000000 12.500000 -0.000001 -0.000001 10.000002 0.000001 0.000001 4.999991 0.000000 -0.000000 12.500000 0.000000 -0.000000 12.500000 -0.000001 -0.000001 10.000002 0.000001 0.000001 4.999991 0.000116 0.000056 -20.810667 0.000116 0.000056 -20.810667 0.000101 0.000013 -16.648548 0.000052 -0.000015 -8.324258 0.000107 0.000043 -42.133711 0.000107 0.000043 -42.133711 0.000086 -0.000033 -33.706954 0.000020 -0.000038 -16.853490 -66.710922 -0.977611 -179.356465 5.470358 -8.528223 -19.561953 24.372377 -30.071821 -8.546954 20.509456 -16.372553 -6.922485 -56.678463 -69.615055 54.256116 8.955831 -20.938090 1.968304 10.335795 -24.097000 1.976862 -33.224619 -21.585236 7.506921 -0.000004 0.000004 -12.500006 -0.000004 0.000004 -12.500006 0.000003 0.000000 -10.000003 0.000003 -0.000002 -4.999999 -0.000878 0.000943 98.664748 -0.000878 0.000943 98.664748 -0.000646 -0.000811 78.931801 0.000331 -0.000391 39.465907 0.000004 0.000002 15.965683 0.000004 0.000002 15.965683 0.000004 -0.000006 12.772543 -0.000010 -0.000004 6.386284 -0.000004 0.000004 -12.500006 -0.000004 0.000004 -12.500006 0.000003 0.000000 -10.000003 0.000003 -0.000002 -4.999999 -26.126309 -8.219273 16.231289 -0.443044 -15.501529 -12.941065 0.000000 18.699926 0.000000 -3.960280 2.732366 17.501966 0.000000 -13.918951 0.000000 -31.753070 -52.015814 -4.853034 0.000000 41.563130 0.000000 -12.154607 42.050693 1.332844 0.000000 0.845363 0.000000
39.851816 89.208630 5.291259 -27.374069 8.920281 5.633182 4.808433 0.810398 -0.369008 4.136423 0.680863 0.056482 2.003126 0.640541 0.514388 1.221742 0.608913 0.312556 34.082177 4.764003 -2.790386 14.779827 -10.646508 -4.000273 11.935305 2.877323 6.605282 -25.387237 21.298492 -44.709801 -44.676761 -3.290227 -5.783713 66.776965 -41.077265 -56.561880 -26.126309 -8.219273 16.231289 -30.241719 -8.772112 18.948786 -98.663056 7.792865 -0.797826 0.000000 -0.000000 12.500000 0.000000 -0.000000 12.500000 -0.000001 -0.000001 10.000002 0.000001 0.000001 4.999991 0.000000 -0.000000 12.500000 0.000000 -0.000000 12.500000 -0.000001 -0.000001 10.000002 0.000001 0.000001 4.999991 0.000116 0.000056 -20.810667 0.000116 0.000056 -20.810667 0.000101 0.000013 -16.648548 0.000052 -0.000015 -8.324258 0.000107 0.000043 -42.133711 0.000107 0.000043 -42.133711 0.000086 -0.000033 -33.706954 0.000020 -0.000038 -16.853490 -66.710922 -0.977611 -179.356465 5.396454 -8.563395 -19.496251 24.340774 -30.023409 -8.530651 20.574213 -16.387577 -6.980461 -57.223674 -69.615718 54.594498 8.955831 -20.938090 1.968304 10.335795 -24.097000 1.976862 -33.224619 -21.585236 7.506921 -0.000004 0.000004 -12.500006 -0.000004 0.000004 -12.500006 0.000003 0.000000 -10.000003 0.000003 -0.000002 -4.999999 -0.000878 0.000943 98.664748 -0.000878 0.000943 98.664748 -0.000646 -0.000811 78.931801 0.000331 -0.000391 39.465907 0.000004 0.000002 15.965683 0.000004 0.000002 15.965683 0.000004 -0.000006 12.772543 -0.000010 -0.000004 6.386284 -0.000004 0.000004 -12.500006 -0.000004 0.000004 -12.500006 0.000003 0.000000 -10.000003 0.000003 -0.000002 -4.999999 -26.126309 -8.219273 16.231289 -0.595740 -15.508105 -12.854366 0.000000 18.862743 0.000000 -4.223488 2.665103 17.816015 0.000000 -13.980210 0.000000 -31.941177 -51.175914 -5.042082 0.000000 40.857728 0.000000 -11.954828 42.063021 2.139273 0.000000 -2.679157 0.000000
39.653110 89.211902 5.281341 -26.739383 8.930747 5.618504 4.688655 0.741905 -0.430685 4.036755 0.558071 0.047957 1.876456 0.706336 0.537604 1.112292 0.648141 0.403268 33.982262 4.759445 -2.778440 14.743696 -10.732646 -4.051305 11.775030 2.849666 6.613501 -25.319925 21.209236 -44.663955 -44.607271 -3.294405 -5.842338 66.650013 -41.055592 -56.433941 -26.126309 -8.219273 16.231289 -30.241719 -8.772112 18.948786 -98.663056 7.792865 -0.797826 0.000000 -0.000000 12.500000 0.000000 -0.000000 12.500000 -0.000001 -0.000001 10.000002 0.000001 0.000001 4.999991 0.000000 -0.000000 12.500000 0.000000 -0.000000 12.500000 -0.000001 -0.000001 10.000002 0.000001 0.000001 4.999991 0.000116 0.000056 -20.810667 0.000116 0.000056 -20.810667 0.000101 0.000013 -16.648548 0.000052 -0.000015 -8.324258 0.000107 0.000043 -42.133711 0.000107 0.000043 -42.133711 0.000086 -0.000033 -33.706954 0.000020 -0.000038 -16.853490 -66.710922 -0.977611 -179.356465 5.323062 -8.591349 -19.424657 24.309097 -29.958833 -8.639680 20.623304 -16.440340 -6.949484 -57.612833 -69.651023 54.809952 8.955831 -20.938090 1.968304 10.335795 -24.097000 1.976862 -33.224619 -21.585236 7.506921 -0.000004 0.000004 -12.500006 -0.000004 0.000004 -12.500006 0.000003 0.000000 -10.000003 0.000003 -0.000002 -4.999999 -0.000878 0.000943 98.664748 -0.000878 0.000943 98.664748 -0.000646 -0.000811 78.931801 0.000331 -0.000391 39.465907 0.000004 0.000002 15.965683 0.000004 0.000002 15.965683 0.000004 -0.000006 12.772543 -0.000010 -0.000004 6.386284 -0.000004 0.000004 -12.500006 -0.000004 0.000004 -12.500006 0.000003 0.000000 -10.000003 0.000003 -0.000002 -4.999999 -26.126309 -8.219273 16.231289 -0.760193 -15.557030 -12.757273 0.000000 18.999562 0.000000 -4.432336 2.660415 18.138677 0.000000 -13.997337 0.000000 -32.237044 -50.443203 -5.137349 0.000000 40.571648 0.000000 -11.582934 41.071480 3.349029 0.000000 -3.839105 0.000000
